<svg width="241" height="249" viewBox="0 0 241 249" fill="none" xmlns="http://www.w3.org/2000/svg">
<path d="M184.631 185.207C186.358 171.043 185.84 168.97 196.377 171.302L198.968 171.561C207.086 171.906 217.709 170.265 223.928 167.329C237.314 161.11 245.26 150.746 232.046 153.424C201.904 159.642 199.831 149.451 199.831 149.451C231.701 102.208 245.001 42.1836 233.514 27.5012C202.163 -12.5729 147.839 6.42777 146.975 6.85961L146.716 6.94597C140.757 5.73684 134.106 4.95954 126.592 4.87318C112.947 4.61408 102.583 8.41421 94.6368 14.4599C94.6368 14.4599 -2.18022 -25.4415 2.22448 64.6389C3.17451 83.8123 29.6891 209.648 61.2993 171.647C72.8724 157.742 84.0137 145.996 84.0137 145.996C89.5411 149.71 96.105 151.524 103.187 150.919L103.705 150.487C103.533 152.301 103.619 154.115 103.964 155.928C95.8459 164.997 98.1778 166.638 81.9409 170.006C65.4449 173.374 75.1179 179.42 81.4227 181.061C89.1093 182.961 106.814 185.725 118.819 168.883L118.301 170.783C121.497 173.374 121.324 189.18 121.756 200.407C122.188 211.635 122.965 222.258 125.297 228.476C127.629 234.695 130.306 250.673 151.725 246.095C169.603 242.295 183.249 236.768 184.544 185.466" fill="white"/>
<path d="M184.631 185.207C186.358 171.043 185.84 168.97 196.377 171.302L198.968 171.561C207.086 171.906 217.709 170.265 223.928 167.329C237.314 161.11 245.26 150.746 232.046 153.424C201.904 159.642 199.831 149.451 199.831 149.451C231.701 102.208 245.001 42.1836 233.514 27.5012C202.163 -12.5729 147.839 6.42777 146.975 6.85961L146.716 6.94597C140.757 5.73684 134.106 4.95954 126.592 4.87318C112.947 4.61408 102.583 8.41421 94.6368 14.4599C94.6368 14.4599 -2.18022 -25.4415 2.22448 64.6389C3.17451 83.8123 29.6891 209.648 61.2992 171.647C72.8724 157.742 84.0137 145.996 84.0137 145.996C89.5411 149.71 96.105 151.524 103.187 150.919L103.705 150.487C103.533 152.301 103.619 154.115 103.964 155.928C95.8459 164.997 98.1778 166.638 81.9409 170.006C65.4449 173.374 75.1179 179.42 81.4227 181.061C89.1093 182.961 106.814 185.725 118.819 168.883L118.301 170.783C121.497 173.374 121.324 189.18 121.756 200.407C122.188 211.635 122.965 222.258 125.297 228.476C127.629 234.695 130.306 250.673 151.725 246.095C169.603 242.295 183.249 236.768 184.544 185.466" stroke="white" stroke-width="2.598"/>
<path d="M232.131 153.424C201.989 159.642 199.916 149.451 199.916 149.451C231.785 102.208 245.086 42.1836 233.599 27.5012C202.248 -12.5729 147.923 6.42777 147.059 6.85961L146.8 6.94597C140.841 5.73684 134.191 4.95954 126.677 4.87318C113.031 4.61408 102.667 8.41421 94.7212 14.4599C94.7212 14.4599 -2.09575 -25.4415 2.30895 64.6389C3.25898 83.8123 29.7735 209.648 61.3837 171.647C72.9568 157.742 84.0981 145.996 84.0981 145.996C89.6256 149.71 96.2758 151.524 103.272 150.919L103.79 150.487C103.617 152.215 103.703 153.942 104.049 155.928C95.9304 164.997 98.2623 166.638 82.0253 170.006C65.5293 173.374 75.2024 179.42 81.5071 181.061C89.1938 182.961 106.899 185.725 118.904 168.883L118.386 170.783C121.581 173.374 123.827 187.366 123.395 200.148C122.963 212.93 122.79 221.653 125.295 228.476C127.8 235.299 130.304 250.673 151.723 246.095C169.601 242.295 178.842 232.363 180.138 215.78C181.088 204.035 183.161 205.762 183.247 195.225L184.888 190.216C186.788 174.238 185.233 169.143 196.202 171.474L198.793 171.733C206.911 172.079 217.535 170.438 223.753 167.502C237.14 161.283 245.086 150.919 231.871 153.597L232.131 153.424Z" fill="white"/>
<path d="M146.979 6.42885C143.524 7.46525 200.871 -14.4719 233.432 27.1568C244.918 41.8392 231.704 101.864 199.749 149.107M120.291 162.58C119.428 192.29 120.464 222.173 123.401 229.514C126.337 236.769 132.555 250.933 153.974 246.355C171.852 242.555 178.33 235.128 181.18 218.718L187.744 166.38L120.291 162.58ZM94.7268 13.6836C94.7268 13.6836 -2.17656 -25.9586 2.31451 64.1218C3.17817 83.2951 29.7791 209.131 61.3893 171.13C72.9624 157.311 83.4128 146.343 83.4128 146.343L94.7268 13.6836Z" stroke="white" stroke-width="0.866" stroke-linecap="round" stroke-linejoin="round"/>
<path d="M199.673 149.106C199.673 149.106 201.746 159.298 231.974 153.079C245.188 150.316 237.156 160.766 223.856 166.984C212.887 172.08 188.186 173.375 187.755 166.38C186.718 148.07 200.71 153.598 199.673 149.106ZM199.673 149.106C198.723 144.961 192.505 140.988 188.359 130.883C184.732 122.074 138.698 54.7941 201.141 64.8126C203.387 64.2944 184.818 5.39236 126.434 4.44232C68.0504 3.49229 69.9505 76.2994 69.9505 76.2994" stroke="white" stroke-width="0.866" stroke-linecap="round" stroke-linejoin="bevel"/>
<path d="M103.87 155.325C95.7516 164.394 98.0835 166.035 81.8466 169.403C65.3505 172.771 75.0236 178.817 81.3284 180.458C89.015 182.358 106.72 185.122 118.725 168.28C122.353 163.185 118.725 155.066 113.716 152.993C111.298 151.871 108.016 150.662 103.87 155.325Z" stroke="white" stroke-width="0.866" stroke-linejoin="round"/>
<path d="M103.358 155.152C102.495 149.797 105.086 143.406 107.849 135.978C111.995 124.837 121.668 113.609 113.895 78.1989C108.195 51.7707 69.8481 72.6715 69.8481 76.2989C69.8481 79.9263 71.5754 94.4359 69.2435 111.45C66.1343 133.56 83.3213 152.302 103.099 150.401" stroke="white" stroke-width="0.866" stroke-linecap="round" stroke-linejoin="round"/>
<path d="M94.2143 75.6956C94.0415 76.9048 96.4598 80.1867 99.569 80.6185C102.678 81.0503 105.356 78.5457 105.528 77.2502C105.701 75.9547 103.283 74.6592 100.174 74.2274C97.0644 73.7956 94.387 74.4865 94.2143 75.6956Z" fill="white" stroke="white" stroke-width="0.289"/>
<path d="M189.916 73.1912C190.089 74.4004 187.67 77.6823 184.561 78.1141C181.452 78.546 178.688 76.0413 178.602 74.7458C178.516 73.4503 180.847 72.1548 183.957 71.723C187.066 71.2912 189.743 71.9821 189.916 73.1912Z" fill="white" stroke="white" stroke-width="0.144"/>
<path d="M201.129 64.7261C201.647 74.3128 199.056 80.8766 198.71 91.0679C198.192 105.923 205.792 122.937 194.392 139.951" stroke="white" stroke-width="0.866" stroke-linecap="round" stroke-linejoin="round"/>
</svg>
